:SAMPLES-PER-SECOND 30
:FULLY-SPECIFIED
:DEGREES
1
root  49.2163 40.5568 0.559472 -137.84 -86.8808 137.891
RightUpLeg  0.159492 -8.52744 -5.47391
RightLeg  6.32617 -6.42182 3.21242
RightFoot  -5.25736 0.0315947 -1.09908
RightToes  0.000482159 0.542163 -0.142577
Spine  6.70923 1.12962 -2.55411
Spine1  -2.99437 0.856834 1.7742
HEad  2.37713 -7.7208 0.2934
LeftShoulder1  1.45747 -3.76141 -12.9834
LeftArm  -19.3345 19.647 -9.75503
LeftForeArm  17.8076 -5.36957 -0.259121
LeftHand  -0.25398 0.0180481 5.50724
RightShoulder  0.541349 -0.152953 9.18686
RightArm  -23.4843 -11.4418 8.57218
RightForeArm  -4.1025 6.69496 2.38829
RightHand  -3.36054 9.51272 -26.2256
LeftUpLeg  -2.69977 3.06763 0.103352
LeftLeg  0.61335 13.5816 -4.12079
LeftFoot  1.39784 -0.177621 1.4592
LeftToes  1.06246e-005 4.65854e-005 -8.18502e-006
2
root  49.2082 40.5568 0.563556 -138.114 -86.8552 138.181
RightUpLeg  0.14314 -8.53916 -5.49143
RightLeg  6.33885 -6.37131 3.2218
RightFoot  -5.26252 0.0304905 -1.08192
RightToes  0.000482159 0.542163 -0.142577
Spine  6.58141 1.12845 -2.66997
Spine1  -2.91731 0.827453 1.94876
HEad  2.59464 -7.54733 0.135732
LeftShoulder1  1.43015 -3.60861 -13.0316
LeftArm  -19.3306 19.558 -9.82266
LeftForeArm  17.8673 -5.37295 -0.275287
LeftHand  -0.25398 0.0180481 5.50724
RightShoulder  0.541282 -0.151532 9.07631
RightArm  -23.4744 -11.3727 8.63353
RightForeArm  -4.08922 6.61909 2.38645
RightHand  -3.36409 9.54024 -26.1916
LeftUpLeg  -2.71861 3.06549 0.0907919
LeftLeg  0.642537 13.6069 -4.1163
LeftFoot  1.38381 -0.177745 1.46112
LeftToes  1.06246e-005 4.65854e-005 -8.18502e-006
3
root  49.1866 40.5568 0.575543 -138.299 -86.8203 138.361
RightUpLeg  0.190775 -8.57863 -5.55035
RightLeg  6.3219 -6.2847 3.24815
RightFoot  -5.27532 0.027848 -1.04085
RightToes  0.000482159 0.542163 -0.142577
Spine  6.39065 1.11932 -2.75732
Spine1  -2.89967 0.800231 2.0693
HEad  3.40279 -7.36166 -0.146257
LeftShoulder1  1.40982 -3.51193 -13.0157
LeftArm  -19.26 19.5432 -9.91227
LeftForeArm  17.8241 -5.34709 -0.308161
LeftHand  -0.25398 0.0180481 5.50724
RightShoulder  0.541204 -0.170655 8.94401
RightArm  -23.4942 -11.298 8.74076
RightForeArm  -3.77344 6.4638 2.34798
RightHand  -3.38423 9.71451 -26.0137
LeftUpLeg  -2.67452 3.04098 0.0464291
LeftLeg  0.631457 13.6624 -4.10716
LeftFoot  1.36522 -0.178833 1.47803
LeftToes  1.06246e-005 4.65854e-005 -8.18502e-006
4
root  49.1599 40.5568 0.590298 -138.275 -86.812 138.296
RightUpLeg  0.317245 -8.62165 -5.61343
RightLeg  6.25282 -6.23017 3.2797
RightFoot  -5.28336 0.0262096 -1.01539
RightToes  0.000482159 0.542163 -0.142577
Spine  6.15997 1.09296 -2.71183
Spine1  -2.79251 0.796059 1.96948
HEad  4.03563 -7.00231 -0.359788
LeftShoulder1  1.40313 -3.53258 -12.8472
LeftArm  -19.3489 19.5674 -10.0702
LeftForeArm  17.8454 -5.26442 -0.263256
LeftHand  -0.25398 0.0180481 5.50724
RightShoulder  0.540461 -0.192318 8.91835
RightArm  -23.5435 -11.3196 8.83528
RightForeArm  -3.34083 6.38833 2.2974
RightHand  -3.41603 9.95863 -25.8566
LeftUpLeg  -2.56788 3.00321 -0.00417719
LeftLeg  0.579393 13.7112 -4.0879
LeftFoot  1.35291 -0.181792 1.52403
LeftToes  1.06246e-005 4.65854e-005 -8.18502e-006
5
root  49.1448 40.5568 0.599732 -138.221 -86.837 138.179
RightUpLeg  0.442265 -8.6425 -5.63731
RightLeg  6.20006 -6.22584 3.29806
RightFoot  -5.28113 0.0281362 -1.04533
RightToes  0.000482159 0.542163 -0.142577
Spine  5.97309 1.05498 -2.67312
Spine1  -2.43152 0.775401 1.87028
HEad  3.2048 -6.06905 -0.344024
LeftShoulder1  1.40333 -3.56968 -12.7361
LeftArm  -19.5254 19.576 -10.1631
LeftForeArm  18.0466 -5.25872 -0.185498
LeftHand  -0.25398 0.0180481 5.50724
RightShoulder  0.534886 -0.228197 8.93014
RightArm  -23.58 -11.3909 8.92951
RightForeArm  -3.1509 6.49026 2.28828
RightHand  -3.46357 10.1177 -25.9442
LeftUpLeg  -2.4808 2.98751 -0.0218697
LeftLeg  0.579417 13.7098 -4.06006
LeftFoot  1.33673 -0.184817 1.57106
LeftToes  1.06246e-005 4.65854e-005 -8.18502e-006
6
root  49.148 40.5568 0.603038 -138.199 -86.872 138.089
RightUpLeg  0.503636 -8.64863 -5.6327
RightLeg  6.22119 -6.23663 3.30328
RightFoot  -5.27236 0.0323798 -1.11128
RightToes  0.000482159 0.542163 -0.142577
Spine  6.02889 1.02131 -2.76181
Spine1  -2.09181 0.717606 1.96268
HEad  0.853699 -4.71916 -0.0571077
LeftShoulder1  1.42101 -3.61172 -12.8807
LeftArm  -19.3991 19.6733 -9.97749
LeftForeArm  18.1421 -5.42122 -0.231417
LeftHand  -0.25398 0.0180481 5.50724
RightShoulder  0.519913 -0.310524 8.87591
RightArm  -23.5983 -11.4164 9.0364
RightForeArm  -3.23496 6.63593 2.31175
RightHand  -3.52018 10.1916 -26.2286
LeftUpLeg  -2.44871 3.00552 -0.00727929
LeftLeg  0.650237 13.6625 -4.04184
LeftFoot  1.31829 -0.18705 1.60579
LeftToes  1.06246e-005 4.65854e-005 -8.18502e-006
7
root  49.1573 40.5568 0.605913 -138.146 -86.8926 138.006
RightUpLeg  0.50237 -8.65367 -5.6312
RightLeg  6.26145 -6.24388 3.3076
RightFoot  -5.25896 0.034906 -1.15054
RightToes  0.000482159 0.542163 -0.142577
Spine  6.33243 1.00646 -2.89124
Spine1  -2.17222 0.667499 2.10469
HEad  -1.65864 -3.68225 0.422496
LeftShoulder1  1.45542 -3.70814 -13.1136
LeftArm  -18.9543 19.8722 -9.63009
LeftForeArm  17.8562 -5.5177 -0.383994
LeftHand  -0.25398 0.0180481 5.50724
RightShoulder  0.505664 -0.388894 8.82246
RightArm  -23.6297 -11.4126 9.07239
RightForeArm  -3.38633 6.58847 2.30183
RightHand  -3.56092 10.2517 -26.4205
LeftUpLeg  -2.4472 3.02983 0.00758753
LeftLeg  0.684176 13.6199 -4.05255
LeftFoot  1.32007 -0.189156 1.63339
LeftToes  1.06246e-005 4.65854e-005 -8.18502e-006
8
root  49.1579 40.5574 0.610661 -138.103 -86.8982 138.014
RightUpLeg  0.460226 -8.64816 -5.62853
RightLeg  6.23099 -6.26062 3.31324
RightFoot  -5.24423 0.033099 -1.12246
RightToes  0.000482159 0.542163 -0.142577
Spine  6.58148 1.00706 -2.93749
Spine1  -2.58407 0.665005 2.10397
HEad  -3.17911 -3.30326 0.888379
LeftShoulder1  1.48211 -3.82707 -13.1563
LeftArm  -18.6302 19.9739 -9.45614
LeftForeArm  17.3585 -5.27099 -0.461386
LeftHand  -0.25398 0.0180481 5.50724
RightShoulder  0.511545 -0.363087 8.88199
RightArm  -23.6738 -11.4488 8.96106
RightForeArm  -3.52355 6.30656 2.23639
RightHand  -3.55416 10.2604 -26.3588
LeftUpLeg  -2.46984 3.04198 0.0139909
LeftLeg  0.615105 13.601 -4.09182
LeftFoot  1.34458 -0.191992 1.65149
LeftToes  1.06246e-005 4.65854e-005 -8.18502e-006
